<svg width="14" height="13" viewBox="0 0 14 13" xmlns="http://www.w3.org/2000/svg">
    <g id="union">
        <path fill-rule="evenodd" clip-rule="evenodd"
              d="M8.68576 7.83723C7.17591 9.2905 4.72795 9.2905 3.2181 7.83723C1.70824 6.38397 1.70824 4.02777 3.2181 2.5745C4.72795 1.12124 7.1759 1.12124 8.68576 2.5745C10.1956 4.02777 10.1956 6.38397 8.68576 7.83723ZM9.15011 9.2408C7.0832 10.7625 4.11438 10.6136 2.22398 8.79409C0.165085 6.81237 0.165085 3.59936 2.22398 1.61764C4.28287 -0.364078 7.62099 -0.364078 9.67988 1.61764C11.5702 3.43711 11.725 6.29449 10.1442 8.28391L13.905 11.9038L12.9109 12.8606L9.15011 9.2408Z"
              fill="#AFAFAF"/>
    </g>
</svg>
